# xmcd
# 
# Track frame offsets:
#     150
#     11210
#     21538
#     33858
#     42667
#     59010
#     73365
#     92196
#     105746
#     122856
#     136902
#     152057
# 
# Disc length: 2225
# 
# Revision: 3
# Processed by: cddbd v1.5.2PL0 Copyright (c) Steve Scherf et al.
# Submitted via: fre:ac v1.0.17
# 
DISCID=b408af0c
DTITLE=Sergio Endrigo - I Grandi Successi Originali cd2
DYEAR=0
DGENRE=Pop
TTITLE0=I tuoi vent'anni
TTITLE1=Ti amo
TTITLE2=Aria di neve
TTITLE3=La rosa bianca
TTITLE4=Ci vuole un fiore
TTITLE5=Teresa
TTITLE6=Spiaggia libera
TTITLE7=La colomba
TTITLE8=La voce dell'uomo
TTITLE9=La prima compagnia
TTITLE10=nelle mie notti
TTITLE11=Allora balliamo
EXTD=
EXTT0=
EXTT1=
EXTT2=
EXTT3=
EXTT4=
EXTT5=
EXTT6=
EXTT7=
EXTT8=
EXTT9=
EXTT10=
EXTT11=
PLAYORDER=
